<?xml version="1.0" encoding="UTF-8" standalone="no"?>
<!-- Created with Inkscape (http://www.inkscape.org/) -->

<svg
   width="210mm"
   height="297mm"
   viewBox="0 0 210 297"
   version="1.1"
   id="svg5"
   inkscape:version="1.1.2 (0a00cf5339, 2022-02-04)"
   sodipodi:docname="ajbc_logos.svg"
   xmlns:inkscape="http://www.inkscape.org/namespaces/inkscape"
   xmlns:sodipodi="http://sodipodi.sourceforge.net/DTD/sodipodi-0.dtd"
   xmlns="http://www.w3.org/2000/svg"
   xmlns:svg="http://www.w3.org/2000/svg">
  <sodipodi:namedview
     id="namedview7"
     pagecolor="#ffffff"
     bordercolor="#666666"
     borderopacity="1.0"
     inkscape:pageshadow="2"
     inkscape:pageopacity="0.0"
     inkscape:pagecheckerboard="0"
     inkscape:document-units="mm"
     showgrid="false"
     inkscape:zoom="1.4142136"
     inkscape:cx="255.26555"
     inkscape:cy="440.17397"
     inkscape:window-width="1366"
     inkscape:window-height="699"
     inkscape:window-x="0"
     inkscape:window-y="0"
     inkscape:window-maximized="1"
     inkscape:current-layer="layer1" />
  <defs
     id="defs2" />
  <g
     inkscape:label="Layer 1"
     inkscape:groupmode="layer"
     id="layer1">
    <path
       id="path26387-2"
       style="fill:#ff8080;stroke:none;stroke-width:0.976"
       d="M 57.296711,31.612465 A 22.912201,24.288034 0 0 1 34.38451,55.900499 22.912201,24.288034 0 0 1 11.472309,31.612465 22.912201,24.288034 0 0 1 34.38451,7.3244305 22.912201,24.288034 0 0 1 57.296711,31.612465 Z" />
    <ellipse
       style="fill:#ffffff;stroke:#000000;stroke-width:0.976;stroke-miterlimit:4;stroke-dasharray:none;stroke-opacity:1"
       id="path26387"
       cx="73.264412"
       cy="74.671059"
       rx="22.912201"
       ry="24.288034" />
    <text
       xml:space="preserve"
       style="font-style:normal;font-weight:normal;font-size:22.5777px;line-height:1.25;font-family:sans-serif;fill:none;fill-opacity:1;stroke:#000000;stroke-width:1;stroke-miterlimit:4;stroke-dasharray:none;stroke-opacity:1"
       x="76.418945"
       y="72.92852"
       id="text2498-3"><tspan
         sodipodi:role="line"
         id="tspan2496-6"
         style="font-style:normal;font-variant:normal;font-weight:900;font-stretch:normal;font-size:22.5777px;font-family:Poppins;-inkscape-font-specification:'Poppins Heavy';fill:none;stroke:#000000;stroke-width:1;stroke-miterlimit:4;stroke-dasharray:none;stroke-opacity:1"
         x="76.418945"
         y="72.92852">J</tspan></text>
    <text
       xml:space="preserve"
       style="font-style:normal;font-weight:normal;font-size:22.5777px;line-height:1.25;font-family:sans-serif;fill:none;fill-opacity:1;stroke:#000000;stroke-width:1;stroke-miterlimit:4;stroke-dasharray:none;stroke-opacity:1"
       x="56.032684"
       y="73.007545"
       id="text2498"><tspan
         sodipodi:role="line"
         id="tspan2496"
         style="font-style:normal;font-variant:normal;font-weight:900;font-stretch:normal;font-size:22.5777px;font-family:Poppins;-inkscape-font-specification:'Poppins Heavy';fill:none;stroke:#000000;stroke-width:1;stroke-miterlimit:4;stroke-dasharray:none;stroke-opacity:1"
         x="56.032684"
         y="73.007545">A</tspan></text>
    <text
       xml:space="preserve"
       style="font-style:normal;font-weight:normal;font-size:22.5777px;line-height:1.25;font-family:sans-serif;fill:none;fill-opacity:1;stroke:#000000;stroke-width:1;stroke-miterlimit:4;stroke-dasharray:none;stroke-opacity:1"
       x="56.755169"
       y="92.26313"
       id="text2498-7"><tspan
         sodipodi:role="line"
         id="tspan2496-5"
         style="font-style:normal;font-variant:normal;font-weight:900;font-stretch:normal;font-size:22.5777px;font-family:Poppins;-inkscape-font-specification:'Poppins Heavy';fill:none;stroke:#000000;stroke-width:1;stroke-miterlimit:4;stroke-dasharray:none;stroke-opacity:1"
         x="56.755169"
         y="92.26313">B</tspan></text>
    <text
       xml:space="preserve"
       style="font-style:normal;font-weight:normal;font-size:22.5777px;line-height:1.25;font-family:sans-serif;fill:none;fill-opacity:1;stroke:#000000;stroke-width:1;stroke-miterlimit:4;stroke-dasharray:none;stroke-opacity:1"
       x="74.172462"
       y="92.285713"
       id="text2498-35"><tspan
         sodipodi:role="line"
         id="tspan2496-62"
         style="font-style:normal;font-variant:normal;font-weight:900;font-stretch:normal;font-size:22.5777px;font-family:Poppins;-inkscape-font-specification:'Poppins Heavy';fill:none;stroke:#000000;stroke-width:1;stroke-miterlimit:4;stroke-dasharray:none;stroke-opacity:1"
         x="74.172462"
         y="92.285713">C</tspan></text>
    <g
       aria-label="J"
       id="text2498-3-8"
       style="font-size:22.5777px;fill:#ffffff;fill-opacity:1;stroke:#000000">
      <g
         id="path27878"
         style="fill:#ffffff;fill-opacity:1">
        <path
           style="color:#000000;-inkscape-font-specification:'Poppins Heavy';fill:#ffffff;fill-opacity:1;stroke:none;-inkscape-stroke:none"
           d="m 49.821312,13.884919 v 10.318009 q 0,2.867368 -1.512706,4.357496 -1.490128,1.46755 -4.199452,1.46755 -2.912523,0 -4.628428,-1.603017 -1.715906,-1.603016 -1.715906,-4.673583 h 4.944517 q 0,0.970841 0.316087,1.377239 0.316088,0.383821 0.857953,0.383821 0.451554,0 0.699909,-0.29351 0.248354,-0.29351 0.248354,-1.015996 V 13.884919 Z"
           id="path28054" />
        <path
           style="color:#000000;-inkscape-font-specification:'Poppins Heavy';fill:#ffffff;fill-opacity:1;stroke:none;-inkscape-stroke:none"
           d="m 44.332031,13.384766 v 10.818359 c 0,0.424365 -0.09596,0.652118 -0.130859,0.693359 -0.06905,0.0816 -0.125657,0.115235 -0.31836,0.115235 -0.240263,0 -0.345031,-0.05556 -0.464843,-0.199219 -0.09189,-0.121887 -0.208985,-0.472997 -0.208985,-1.060547 v -0.5 h -5.943359 v 0.5 c 0,2.14018 0.612737,3.861669 1.873047,5.039063 1.247057,1.165014 2.937292,1.736328 4.970703,1.736328 1.896492,0 3.449424,-0.526659 4.550781,-1.611328 1.122693,-1.105937 1.66211,-2.713388 1.66211,-4.712891 V 13.384766 h -0.5 z m 1,1 h 3.990235 v 9.818359 c 0,1.82365 -0.470988,3.121054 -1.365235,4.001953 -0.885478,0.872062 -2.131719,1.322266 -3.847656,1.322266 -1.849949,0 -3.246295,-0.494458 -4.287109,-1.466797 -0.925828,-0.864917 -1.384299,-2.146863 -1.478516,-3.808594 h 3.990234 c 0.04748,0.434251 0.06544,0.886035 0.296875,1.183594 l 0.0039,0.0059 0.0039,0.0059 c 0.299855,0.364109 0.764842,0.564453 1.24414,0.564453 0.409369,0 0.819942,-0.160961 1.082032,-0.470703 0.296242,-0.350106 0.367187,-0.798943 0.367187,-1.337891 z"
           id="path28056" />
      </g>
    </g>
    <g
       aria-label="A"
       id="text2498-361"
       style="font-size:22.5777px;line-height:1.25;fill:#ffffff;stroke:none;stroke-width:1;stroke-miterlimit:4;stroke-dasharray:none;stroke-opacity:1"
       transform="translate(-16.7502,-64.002301)">
      <path
         d="m 45.282141,91.535442 h -5.328337 l -0.790219,2.415814 h -5.260604 l 5.847624,-15.985012 h 5.779891 l 5.825047,15.985012 H 46.072361 Z M 44.062946,87.764966 42.617973,83.317159 41.173,87.764966 Z"
         style="font-weight:900;font-family:Poppins;-inkscape-font-specification:'Poppins Heavy';fill:#ffffff;stroke:none"
         id="path27881" />
    </g>
    <g
       aria-label="B"
       id="text2498-7-9"
       style="font-size:22.5777px;line-height:1.25;fill:#ffffff;fill-opacity:1;stroke:none;stroke-width:1;stroke-miterlimit:4;stroke-dasharray:none;stroke-opacity:1"
       transform="translate(-16.7502,-64.002301)">
      <path
         d="m 46.45618,105.01114 q 1.444973,0.33866 2.235192,1.39981 0.812797,1.03858 0.812797,2.41582 0,2.09972 -1.399817,3.25119 -1.37724,1.12888 -3.973675,1.12888 H 35.75435 V 97.221829 h 8.15055 q 2.438392,0 3.838209,1.061152 1.399817,1.061152 1.399817,3.093149 0,1.39981 -0.745064,2.37065 -0.722486,0.94827 -1.941682,1.26436 z m -5.68958,-1.55787 h 1.941682 q 0.677331,0 0.993419,-0.27093 0.338665,-0.27093 0.338665,-0.83537 0,-0.58702 -0.338665,-0.85796 -0.316088,-0.29351 -0.993419,-0.29351 H 40.7666 Z m 2.280347,5.73474 q 0.677331,0 0.993419,-0.24835 0.338666,-0.27094 0.338666,-0.85796 0,-1.15146 -1.332085,-1.15146 H 40.7666 v 2.25777 z"
         style="font-weight:900;font-family:Poppins;-inkscape-font-specification:'Poppins Heavy';fill:#ffffff;fill-opacity:1;stroke:none"
         id="path27884" />
    </g>
    <g
       aria-label="C"
       id="text2498-35-1"
       style="font-size:22.5777px;line-height:1.25;fill:#ffffff;fill-opacity:1;stroke:none;stroke-width:1;stroke-miterlimit:4;stroke-dasharray:none;stroke-opacity:1"
       transform="translate(-16.7502,-64.002301)">
      <path
         d="m 52.72009,105.21434 q 0,-2.37066 0.948263,-4.22203 0.970841,-1.851371 2.75448,-2.867368 1.783638,-1.038574 4.199452,-1.038574 2.077148,0 3.702743,0.79022 1.648172,0.767642 2.664168,2.190032 1.038574,1.4224 1.37724,3.31893 h -5.283182 q -0.361243,-0.79022 -1.038574,-1.2192 -0.654753,-0.45155 -1.512706,-0.45155 -1.264351,0 -2.009415,0.94826 -0.722487,0.94826 -0.722487,2.55128 0,1.60302 0.722487,2.55128 0.745064,0.94826 2.009415,0.94826 0.857953,0 1.512706,-0.42897 0.677331,-0.45156 1.038574,-1.24178 h 5.283182 q -0.338666,1.89653 -1.37724,3.31893 -1.015996,1.42239 -2.664168,2.21261 -1.625595,0.76764 -3.702743,0.76764 -2.415814,0 -4.199452,-1.01599 -1.783639,-1.03858 -2.75448,-2.88995 -0.948263,-1.85137 -0.948263,-4.22203 z"
         style="font-weight:900;font-family:Poppins;-inkscape-font-specification:'Poppins Heavy';fill:#ffffff;fill-opacity:1;stroke:none"
         id="path27887" />
    </g>
    <ellipse
       style="fill:none;stroke:#000000;stroke-width:0.976;stroke-miterlimit:4;stroke-dasharray:none;stroke-opacity:1"
       id="ellipse27158-8"
       cx="61.887558"
       cy="195.94563"
       rx="22.912201"
       ry="24.288034" />
    <g
       id="g27634"
       style="fill:#000000;stroke:#000000;stroke-opacity:1">
      <text
         xml:space="preserve"
         style="font-style:normal;font-weight:normal;font-size:22.5777px;line-height:1.25;font-family:sans-serif;fill:#000000;fill-opacity:1;stroke:#000000;stroke-width:1;stroke-miterlimit:4;stroke-dasharray:none;stroke-opacity:1"
         x="65.042099"
         y="194.20311"
         id="text2498-3-7-7"><tspan
           sodipodi:role="line"
           id="tspan2496-6-0-9"
           style="font-style:normal;font-variant:normal;font-weight:900;font-stretch:normal;font-size:22.5777px;font-family:Poppins;-inkscape-font-specification:'Poppins Heavy';fill:#000000;stroke:#000000;stroke-width:1;stroke-miterlimit:4;stroke-dasharray:none;stroke-opacity:1"
           x="65.042099"
           y="194.20311">J</tspan></text>
      <text
         xml:space="preserve"
         style="font-style:normal;font-weight:normal;font-size:22.5777px;line-height:1.25;font-family:sans-serif;fill:#000000;fill-opacity:1;stroke:#000000;stroke-width:1;stroke-miterlimit:4;stroke-dasharray:none;stroke-opacity:1"
         x="44.655834"
         y="194.28214"
         id="text2498-36-2"><tspan
           sodipodi:role="line"
           id="tspan2496-0-0"
           style="font-style:normal;font-variant:normal;font-weight:900;font-stretch:normal;font-size:22.5777px;font-family:Poppins;-inkscape-font-specification:'Poppins Heavy';fill:#000000;fill-opacity:1;stroke:#000000;stroke-width:1;stroke-miterlimit:4;stroke-dasharray:none;stroke-opacity:1"
           x="44.655834"
           y="194.28214">A</tspan></text>
      <text
         xml:space="preserve"
         style="font-style:normal;font-weight:normal;font-size:22.5777px;line-height:1.25;font-family:sans-serif;fill:#000000;fill-opacity:1;stroke:#000000;stroke-width:1;stroke-miterlimit:4;stroke-dasharray:none;stroke-opacity:1"
         x="45.378319"
         y="213.53772"
         id="text2498-7-6-2"><tspan
           sodipodi:role="line"
           id="tspan2496-5-2-3"
           style="font-style:normal;font-variant:normal;font-weight:900;font-stretch:normal;font-size:22.5777px;font-family:Poppins;-inkscape-font-specification:'Poppins Heavy';fill:#000000;stroke:#000000;stroke-width:1;stroke-miterlimit:4;stroke-dasharray:none;stroke-opacity:1"
           x="45.378319"
           y="213.53772">B</tspan></text>
      <g
         aria-label="C"
         id="text2498-35-6-7"
         style="font-size:22.5777px;line-height:1.25;fill:#000000;stroke:#000000;stroke-opacity:1"
         transform="translate(0.97106721,65.523851)">
        <path
           d="m 62.501878,140.02137 q 0,-2.37066 0.948263,-4.22203 0.970841,-1.85137 2.75448,-2.86737 1.783638,-1.03857 4.199452,-1.03857 2.077148,0 3.702742,0.79022 1.648173,0.76764 2.664169,2.19003 1.038574,1.4224 1.37724,3.31893 h -5.283182 q -0.361243,-0.79022 -1.038574,-1.2192 -0.654754,-0.45155 -1.512706,-0.45155 -1.264351,0 -2.009415,0.94826 -0.722487,0.94826 -0.722487,2.55128 0,1.60302 0.722487,2.55128 0.745064,0.94826 2.009415,0.94826 0.857952,0 1.512706,-0.42897 0.677331,-0.45156 1.038574,-1.24178 h 5.283182 q -0.338666,1.89653 -1.37724,3.31893 -1.015996,1.42239 -2.664169,2.21261 -1.625594,0.76764 -3.702742,0.76764 -2.415814,0 -4.199452,-1.01599 -1.783639,-1.03858 -2.75448,-2.88995 -0.948263,-1.85137 -0.948263,-4.22203 z"
           style="font-weight:900;font-family:Poppins;-inkscape-font-specification:'Poppins Heavy';fill:#000000;stroke:#000000;stroke-opacity:1"
           id="path27116-5" />
      </g>
    </g>
    <text
       xml:space="preserve"
       style="font-style:normal;font-weight:normal;font-size:10.5833px;line-height:1.25;font-family:sans-serif;fill:#000000;fill-opacity:1;stroke:none;stroke-width:0.264583"
       x="97.238747"
       y="215.53249"
       id="text21320"><tspan
         sodipodi:role="line"
         id="tspan21318"
         style="stroke-width:0.264583"
         x="97.238747"
         y="215.53249" /></text>
    <g
       aria-label="C"
       id="text2498-35-6"
       style="font-size:22.5777px;line-height:1.25;opacity:1;fill:none;fill-opacity:1;stroke:#ffffff;stroke-opacity:1"
       transform="translate(19.543031,-50.569095)">
      <path
         d="m 62.501878,140.02137 q 0,-2.37066 0.948263,-4.22203 0.970841,-1.85137 2.75448,-2.86737 1.783638,-1.03857 4.199452,-1.03857 2.077148,0 3.702742,0.79022 1.648173,0.76764 2.664169,2.19003 1.038574,1.4224 1.37724,3.31893 h -5.283182 q -0.361243,-0.79022 -1.038574,-1.2192 -0.654754,-0.45155 -1.512706,-0.45155 -1.264351,0 -2.009415,0.94826 -0.722487,0.94826 -0.722487,2.55128 0,1.60302 0.722487,2.55128 0.745064,0.94826 2.009415,0.94826 0.857952,0 1.512706,-0.42897 0.677331,-0.45156 1.038574,-1.24178 h 5.283182 q -0.338666,1.89653 -1.37724,3.31893 -1.015996,1.42239 -2.664169,2.21261 -1.625594,0.76764 -3.702742,0.76764 -2.415814,0 -4.199452,-1.01599 -1.783639,-1.03858 -2.75448,-2.88995 -0.948263,-1.85137 -0.948263,-4.22203 z"
         style="font-weight:900;font-family:Poppins;-inkscape-font-specification:'Poppins Heavy';opacity:0.690371;fill:none;fill-opacity:1;stroke:#ffffff;stroke-width:1;stroke-miterlimit:4;stroke-dasharray:none;stroke-opacity:1"
         id="path27116" />
    </g>
    <g
       id="g40903">
      <ellipse
         style="fill:#ffffff;stroke:none;stroke-width:0.976;stroke-miterlimit:4;stroke-dasharray:none;stroke-opacity:1"
         id="ellipse27158"
         cx="60.709965"
         cy="131.01559"
         rx="22.912201"
         ry="24.288034" />
      <ellipse
         style="fill:#0000ff;stroke:none;stroke-width:1.0335;stroke-miterlimit:4;stroke-dasharray:none;stroke-opacity:1"
         id="ellipse27158-9"
         cx="60.709965"
         cy="131.01559"
         rx="24.261999"
         ry="25.718891" />
      <g
         aria-label="J"
         id="text2498-3-7"
         style="font-size:22.5777px;line-height:1.25;fill:none;stroke:#ffffff;stroke-opacity:1"
         transform="translate(0.13813546)">
        <path
           d="m 76.146771,113.28806 v 10.31801 q 0,2.86737 -1.512706,4.35749 -1.490128,1.46756 -4.199452,1.46756 -2.912524,0 -4.628429,-1.60302 -1.715905,-1.60302 -1.715905,-4.67359 h 4.944516 q 0,0.97085 0.316088,1.37724 0.316088,0.38383 0.857953,0.38383 0.451554,0 0.699908,-0.29351 0.248355,-0.29351 0.248355,-1.016 v -10.31801 z"
           style="font-weight:900;font-family:Poppins;-inkscape-font-specification:'Poppins Heavy';fill:none;stroke:#ffffff;stroke-opacity:1"
           id="path30272" />
      </g>
      <g
         aria-label="A"
         id="text2498-36"
         style="font-size:22.5777px;line-height:1.25;fill:none;stroke:#ffffff;stroke-opacity:1">
        <path
           d="m 54.857402,126.93628 h -5.328338 l -0.790219,2.41582 h -5.260604 l 5.847624,-15.98501 h 5.779891 l 5.825047,15.98501 h -5.283182 z m -1.219196,-3.77047 -1.444973,-4.44781 -1.444973,4.44781 z"
           style="font-weight:900;font-family:Poppins;-inkscape-font-specification:'Poppins Heavy';fill:none;stroke:#ffffff;stroke-opacity:1"
           id="path37631" />
      </g>
      <g
         aria-label="B"
         id="text2498-7-6"
         style="font-size:22.5777px;line-height:1.25;fill:none;stroke:#ffffff;stroke-opacity:1">
        <path
           d="m 56.03144,140.41198 q 1.444973,0.33866 2.235192,1.39981 0.812798,1.03858 0.812798,2.41582 0,2.09972 -1.399818,3.25119 -1.377239,1.12888 -3.973675,1.12888 h -8.376326 v -15.98501 h 8.150549 q 2.438392,0 3.838209,1.06115 1.399817,1.06115 1.399817,3.09315 0,1.39981 -0.745064,2.37066 -0.722486,0.94826 -1.941682,1.26435 z m -5.68958,-1.55786 h 1.941682 q 0.677331,0 0.993419,-0.27094 0.338665,-0.27093 0.338665,-0.83537 0,-0.58702 -0.338665,-0.85795 -0.316088,-0.29351 -0.993419,-0.29351 H 50.34186 Z m 2.280348,5.73473 q 0.677331,0 0.993418,-0.24835 0.338666,-0.27094 0.338666,-0.85796 0,-1.15146 -1.332084,-1.15146 H 50.34186 v 2.25777 z"
           style="font-weight:900;font-family:Poppins;-inkscape-font-specification:'Poppins Heavy';fill:none;stroke:#ffffff;stroke-opacity:1"
           id="path37652" />
      </g>
      <g
         aria-label="C"
         id="text2498-35-3"
         style="font-size:22.5777px;line-height:1.25;fill:none;stroke:#ffffff;stroke-opacity:1"
         transform="translate(-1.0583333)">
        <path
           d="m 63.443223,140.59194 q 0,-2.37066 0.948263,-4.22203 0.970841,-1.85137 2.75448,-2.86737 1.783638,-1.03857 4.199452,-1.03857 2.077148,0 3.702743,0.79022 1.648172,0.76764 2.664168,2.19004 1.038574,1.42239 1.37724,3.31892 h -5.283182 q -0.361243,-0.79022 -1.038574,-1.2192 -0.654753,-0.45155 -1.512706,-0.45155 -1.264351,0 -2.009415,0.94826 -0.722487,0.94827 -0.722487,2.55128 0,1.60302 0.722487,2.55128 0.745064,0.94827 2.009415,0.94827 0.857953,0 1.512706,-0.42898 0.677331,-0.45156 1.038574,-1.24177 h 5.283182 q -0.338666,1.89652 -1.37724,3.31892 -1.015996,1.42239 -2.664168,2.21261 -1.625595,0.76764 -3.702743,0.76764 -2.415814,0 -4.199452,-1.01599 -1.783639,-1.03858 -2.75448,-2.88995 -0.948263,-1.85137 -0.948263,-4.22203 z"
           style="font-weight:900;font-family:Poppins;-inkscape-font-specification:'Poppins Heavy';fill:none;stroke:#ffffff;stroke-opacity:1"
           id="path38736" />
      </g>
    </g>
  </g>
</svg>
